<svg xmlns="http://www.w3.org/2000/svg" xmlns:xlink="http://www.w3.org/1999/xlink" width="248px" height="89px" viewBox="0 0 248 89" version="1.1">
  <#comment/>
  <desc>
    Created with Sketch.
  </desc>
  <defs>
    <polygon id="path-1" points="0.4684 0.2161 25.6094 0.2161 25.6094 43 0.4684 43"/>
    <polygon id="path-3" points="0.5274 0.6011 19.894 0.6011 19.894 38.8321 0.5274 38.8321"/>
    <polygon id="path-5" points="0.163 0.5 26.7988565 0.5 26.7988565 27.0426 0.163 27.0426"/>
  </defs>
  <g id="Page-1" stroke="none" stroke-width="1" fill="none" fill-rule="evenodd">
    <g id="Overview" transform="translate(-597.000000, -86.000000)">
      <g id="Group-3" transform="translate(597.000000, 85.000000)">
        <text id="BACKOFFICE" font-family="Roboto-Light, Roboto" font-size="30" font-weight="300" letter-spacing="8.35000038" fill="#FFFFFF">
          <tspan x="0.176951408" y="89">
            BACKOFFIC
          </tspan>
          <tspan x="231.757619" y="89">
            E
          </tspan>
        </text>
        <g id="Page-1">
          <path d="M80.4346 12.3564C79.5966 11.3764 78.5296 10.6804 77.2616 10.2914 76.0156 9.9094 74.5526 9.7154 72.9136 9.7154 70.6676 9.7154 68.7026 10.1344 67.0706 10.9604 65.5126 11.7504 64.2396 12.7644 63.2846 13.9804L62.4116 10.4284 58.6506 10.4284 58.6506 40.6194 63.8896 40.6194 63.8896 20.0974C64.4286 18.4624 65.3686 17.0844 66.6816 15.9994 67.9966 14.9124 69.6946 14.3614 71.7246 14.3614 73.9966 14.3614 75.5746 15.1094 76.4136 16.5854 77.2806 18.1054 77.7186 20.4144 77.7186 23.4454L77.7186 40.6194 82.9576 40.6194 82.9576 22.4344C82.9576 19.9694 82.7466 17.9004 82.3276 16.2844 81.9046 14.6534 81.2676 13.3324 80.4346 12.3564" id="Fill-1" fill="#FFFFFF"/>
          <path d="M94.9834 22.0127C95.2784 19.2607 96.0894 17.2857 97.3994 16.1427 98.7544 14.9607 100.5874 14.3617 102.8534 14.3617 104.8724 14.3617 106.4524 14.9457 107.5474 16.0977 108.6164 17.2217 109.1714 19.2107 109.2024 22.0127L94.9834 22.0127ZM110.6064 11.9067C109.5134 11.0557 108.2614 10.4707 106.8854 10.1677 105.5294 9.8677 104.1524 9.7157 102.7944 9.7157 98.5424 9.7157 95.2214 11.0837 92.9244 13.7827 90.6394 16.4687 89.4814 20.4187 89.4814 25.5247 89.4814 27.9117 89.7444 30.0917 90.2614 32.0027 90.7824 33.9267 91.5954 35.6047 92.6814 36.9917 93.7714 38.3827 95.1814 39.4667 96.8744 40.2117 98.5614 40.9547 100.5734 41.3317 102.8534 41.3317 104.8854 41.3317 106.8384 41.0477 108.6574 40.4897 110.4804 39.9287 112.0164 39.1547 113.2224 38.1897L113.3794 38.0647 111.3564 34.1557 111.1224 34.3757C110.4764 34.9837 109.4864 35.5257 108.1774 35.9877 106.8634 36.4507 105.5314 36.6867 104.2194 36.6867 102.5144 36.6867 101.0564 36.4427 99.8854 35.9617 98.7214 35.4857 97.7644 34.7897 97.0424 33.8947 96.3154 32.9977 95.7714 31.8787 95.4244 30.5707 95.0924 29.3147 94.9164 27.8597 94.9004 26.2417L113.9334 26.2417 113.9644 26.0347C114.2034 24.4487 114.3244 22.9777 114.3244 21.6617 114.3244 19.1457 113.9774 17.0837 113.2934 15.5337 112.6054 13.9777 111.7014 12.7567 110.6064 11.9067Z" id="Fill-3" fill="#FFFFFF"/>
          <path d="M135.3144 35.5166C134.4474 35.8706 133.6554 36.1586 132.9604 36.3706 132.2744 36.5796 131.4184 36.6866 130.4174 36.6866 129.2694 36.6866 128.4824 36.3066 128.0114 35.5266 127.5224 34.7186 127.2744 33.2916 127.2744 31.2866L127.2744 15.0746 135.3534 15.0746 135.3534 10.4286 127.2744 10.4286 127.2744 3.1016 122.0354 4.6086 122.0354 10.4286 117.4014 10.4286 117.4014 15.0746 122.0354 15.0746 122.0354 32.1766C122.0354 35.4226 122.5504 37.7796 123.5664 39.1816 124.5994 40.6086 126.3844 41.3316 128.8734 41.3316 130.3504 41.3316 131.7494 41.1686 133.0304 40.8486 134.3094 40.5296 135.5044 40.1036 136.5824 39.5846L136.7684 39.4946 135.5644 35.4136 135.3144 35.5166Z" id="Fill-5" fill="#FFFFFF"/>
          <path d="M155.9492 24.9062C154.8872 24.1852 153.7092 23.5962 152.4472 23.1552 151.2032 22.7202 150.0502 22.2732 149.0172 21.8252 147.9952 21.3822 147.1252 20.8742 146.4302 20.3142 145.7722 19.7852 145.4522 19.0602 145.4522 18.0982 145.4522 16.7212 145.8282 15.7482 146.5692 15.2052 147.3352 14.6452 148.5762 14.3612 150.2582 14.3612 151.6922 14.3612 153.0602 14.5292 154.3252 14.8592 155.5902 15.1892 156.6842 15.5742 157.5782 16.0012L157.8382 16.1252 159.1032 11.7302 158.9182 11.6412C157.8422 11.1242 156.5572 10.6692 155.1012 10.2882 153.6412 9.9082 151.8112 9.7162 149.6642 9.7162 146.7282 9.7162 144.3982 10.4042 142.7372 11.7612 141.0622 13.1302 140.2132 15.3022 140.2132 18.2172 140.2132 20.0022 140.5872 21.4482 141.3252 22.5132 142.0532 23.5652 142.9672 24.4382 144.0402 25.1062 145.1012 25.7672 146.2782 26.3152 147.5372 26.7342 148.7652 27.1442 149.9182 27.5822 150.9632 28.0342 151.9822 28.4772 152.8472 29.0312 153.5362 29.6802 154.2042 30.3122 154.5292 31.1682 154.5292 32.2962 154.5292 33.9632 154.0232 35.0802 152.9822 35.7122 151.9192 36.3582 150.5422 36.6862 148.8912 36.6862 147.4142 36.6862 145.9382 36.4692 144.5062 36.0432 143.0622 35.6142 141.8802 35.1412 140.9912 34.6382L140.7392 34.4952 139.1472 39.0032 139.3282 39.1032C140.4122 39.7052 141.7692 40.2322 143.3612 40.6692 144.9602 41.1082 146.9202 41.3322 149.1882 41.3322 150.9482 41.3322 152.5052 41.0962 153.8142 40.6352 155.1272 40.1702 156.2442 39.5232 157.1352 38.7142 158.0302 37.8982 158.7022 36.9072 159.1292 35.7672 159.5532 34.6362 159.7682 33.4092 159.7682 32.1182 159.7682 30.2962 159.3952 28.8022 158.6592 27.6772 157.9322 26.5672 157.0202 25.6352 155.9492 24.9062" id="Fill-7" fill="#FFFFFF"/>
          <g id="Group-11" transform="translate(166.000000, 9.500000)">
            <mask id="mask-2" fill="white">
              <use xlink:href="#path-1"/>
            </mask>
            <g id="Clip-10"/>
            <path d="M20.1914 15.3701C20.1914 19.2561 19.3994 22.2341 17.8374 24.2201 16.2904 26.1881 14.1664 27.1861 11.5244 27.1861 10.0504 27.1861 8.8574 27.0401 7.9764 26.7531 7.1344 26.4781 6.3724 26.0871 5.7094 25.5861L5.7034 11.0271C6.1654 8.9491 6.9684 7.3831 8.0924 6.3731 9.2104 5.3701 10.7644 4.8611 12.7124 4.8611 14.0894 4.8611 15.2604 5.1121 16.1924 5.6051 17.1214 6.0991 17.8904 6.8011 18.4794 7.6931 19.0734 8.5941 19.5114 9.7051 19.7814 10.9951 20.0534 12.3041 20.1914 13.7751 20.1914 15.3701M13.6034 0.2161C11.7124 0.2161 10.0064 0.5951 8.5334 1.3411 7.1254 2.0561 5.9504 3.0861 5.0394 4.4051L4.1704 0.9291 0.4684 0.9291 0.4684 43.0001 5.7094 43.0001 5.7094 30.7691C6.5814 31.1331 7.4104 31.3981 8.1774 31.5581 9.0424 31.7391 10.2274 31.8321 11.7024 31.8321 13.7854 31.8321 15.7074 31.4441 17.4164 30.6821 19.1254 29.9181 20.6024 28.8171 21.8084 27.4101 23.0114 26.0071 23.9564 24.2691 24.6174 22.2481 25.2754 20.2341 25.6094 17.9401 25.6094 15.4301 25.6094 10.0911 24.6114 6.1811 22.6424 3.8091 20.6614 1.4251 17.6204 0.2161 13.6034 0.2161" id="Fill-9" fill="#FFFFFF" mask="url(#mask-2)"/>
          </g>
          <path d="M218.0322 25.5244C218.0322 29.9204 217.1212 33.0524 215.3242 34.8374 214.0872 36.0644 212.3902 36.6864 210.2772 36.6864 208.8452 36.6944 207.5852 36.3894 206.5812 35.7714 205.5892 35.1624 204.7762 34.3494 204.1672 33.3564 203.5502 32.3554 203.0912 31.1624 202.8012 29.8094 202.5092 28.4444 202.3612 27.0034 202.3612 25.5244 202.3612 21.1284 203.2722 17.9964 205.0692 16.2114 206.3062 14.9834 208.0042 14.3614 210.1182 14.3614 211.5602 14.3644 212.8082 14.6494 213.8142 15.2484 214.8052 15.8394 215.6172 16.6414 216.2262 17.6314 216.8432 18.6334 217.3022 19.8274 217.5932 21.1784 217.8842 22.5454 218.0322 24.0064 218.0322 25.5244M220.2492 14.0574C219.1622 12.6674 217.7612 11.5834 216.0882 10.8364 214.4202 10.0924 212.4372 9.7154 210.1962 9.7154 205.9422 9.7154 202.6322 11.0944 200.3572 13.8134 198.0922 16.5174 196.9432 20.4584 196.9432 25.5244 196.9432 27.8734 197.2062 30.0434 197.7232 31.9724 198.2432 33.9154 199.0572 35.6024 200.1442 36.9914 201.2332 38.3824 202.6342 39.4664 204.3052 40.2124 205.9722 40.9554 207.9552 41.3324 210.1962 41.3324 214.4502 41.3324 217.7612 39.9534 220.0362 37.2344 222.3022 34.5274 223.4502 30.5874 223.4502 25.5244 223.4502 23.1804 223.1872 21.0104 222.6692 19.0754 222.1482 17.1304 221.3342 15.4424 220.2492 14.0574" id="Fill-12" fill="#FFFFFF"/>
          <g id="Group-16" transform="translate(226.000000, 2.500000)">
            <mask id="mask-4" fill="white">
              <use xlink:href="#path-3"/>
            </mask>
            <g id="Clip-15"/>
            <path d="M18.6894 32.9141L18.4404 33.0171C17.5734 33.3701 16.7814 33.6581 16.0854 33.8701 15.3994 34.0801 14.5444 34.1861 13.5434 34.1861 12.3944 34.1861 11.6084 33.8071 11.1364 33.0261 10.6474 32.2191 10.4004 30.7931 10.4004 28.7861L10.4004 12.5741 18.4794 12.5741 18.4794 7.9291 10.4004 7.9291 10.4004 0.6011 5.1604 2.1081 5.1604 7.9291 0.5274 7.9291 0.5274 12.5741 5.1604 12.5741 5.1604 29.6771C5.1604 32.9231 5.6754 35.2791 6.6914 36.6821 7.7244 38.1081 9.5094 38.8321 11.9984 38.8321 13.4754 38.8321 14.8754 38.6691 16.1554 38.3491 17.4354 38.0291 18.6294 37.6031 19.7084 37.0851L19.8944 36.9941 18.6894 32.9141Z" id="Fill-14" fill="#FFFFFF" mask="url(#mask-4)"/>
          </g>
          <g id="Group-19" transform="translate(18.000000, 0.500000)">
            <mask id="mask-6" fill="white">
              <use xlink:href="#path-5"/>
            </mask>
            <g id="Clip-18"/>
            <path d="M0.206 3.8486L0.163 0.4996C0.163 0.4996 11.457 0.5396 19.022 8.3216 26.588 16.1026 26.972 25.4736 26.759 27.0426L23.434 26.9566C23.434 26.9566 23.645 17.8396 16.593 10.7386 9.54 3.6376 0.206 3.8486 0.206 3.8486" id="Fill-17" fill="#FFFFFF" mask="url(#mask-6)"/>
          </g>
          <path d="M18.1572 11.7939L18.1572 8.4099C18.1572 8.4099 26.0532 8.2009 31.7232 14.0929 37.3962 19.9829 37.1452 24.9609 37.3962 27.5499L33.9942 27.5499C33.9942 27.5499 34.3502 21.2339 29.3322 16.3899 24.3112 11.5459 18.1572 11.7939 18.1572 11.7939" id="Fill-20" fill="#FFFFFF"/>
          <path d="M18.1816 19.1377L18.2056 15.7777C18.2056 15.7777 22.7426 15.5597 26.4786 19.2277 30.2156 22.8967 29.9916 27.5997 29.9916 27.5997L26.6386 27.5497C26.6386 27.5497 26.5776 24.0567 24.1436 21.6327 21.7086 19.2117 18.1816 19.1377 18.1816 19.1377" id="Fill-22" fill="#FFFFFF"/>
          <path d="M18.3056 27.4033L22.0756 27.4653C22.3686 26.4373 22.1096 25.2863 21.2976 24.4753 20.4746 23.6583 19.3006 23.4033 18.2596 23.7113L18.3056 27.4033Z" id="Fill-24" fill="#FFFFFF"/>
          <path d="M16.0713 11.6885L16.0713 8.5965C6.8193 9.6705 0.0003 17.4945 0.0003 26.9875 0.0003 37.2155 8.3343 45.5055 18.6143 45.5055 28.2063 45.5055 36.1023 38.6595 37.1173 29.3835L34.0123 29.3835C33.0143 36.9595 26.5023 42.4405 18.6143 42.4405 10.0363 42.4405 3.0823 35.5215 3.0823 26.9875 3.0823 20.2195 7.4573 14.4695 13.5463 12.3795" id="Fill-26" fill="#FFFFFF"/>
        </g>
      </g>
    </g>
  </g>
</svg>
